<svg xmlns="http://www.w3.org/2000/svg" viewBox="0 0 600 480" fill="none" aria-hidden="true">
  <!-- América do Norte (simplificado) -->
  <path d="M80 60 L180 40 L280 50 L360 70 L400 100 L380 140 L340 160 L280 150 L220 140 L160 130 L100 110 Z" fill="#eef0f5" stroke="#d4d9e4" stroke-width="1"/>
  <!-- México / América Central -->
  <path d="M280 150 L320 145 L350 165 L340 195 L310 210 L280 200 L260 175 Z" fill="#eef0f5" stroke="#d4d9e4" stroke-width="1"/>
  <!-- América do Sul -->
  <path d="M300 210 L340 205 L380 220 L410 250 L430 290 L440 340 L430 390 L400 430 L360 445 L320 430 L290 400 L270 360 L260 320 L265 280 L275 240 Z" fill="#eef0f5" stroke="#d4d9e4" stroke-width="1"/>
  <!-- Chile (faixa) -->
  <path d="M270 360 L285 280 L295 360 L285 430 L265 420 Z" fill="#e4e8f0" stroke="#d4d9e4" stroke-width="0.8"/>
  <!-- Grade decorativa -->
  <line x1="0" y1="120" x2="600" y2="120" stroke="#e8ebf2" stroke-width="0.5" stroke-dasharray="4 6"/>
  <line x1="0" y1="240" x2="600" y2="240" stroke="#e8ebf2" stroke-width="0.5" stroke-dasharray="4 6"/>
  <line x1="0" y1="360" x2="600" y2="360" stroke="#e8ebf2" stroke-width="0.5" stroke-dasharray="4 6"/>
  <line x1="150" y1="0" x2="150" y2="480" stroke="#e8ebf2" stroke-width="0.5" stroke-dasharray="4 6"/>
  <line x1="300" y1="0" x2="300" y2="480" stroke="#e8ebf2" stroke-width="0.5" stroke-dasharray="4 6"/>
  <line x1="450" y1="0" x2="450" y2="480" stroke="#e8ebf2" stroke-width="0.5" stroke-dasharray="4 6"/>
</svg>
